<svg width="24" height="24" viewBox="0 0 24 24" fill="none" xmlns="http://www.w3.org/2000/svg">
<circle cx="12" cy="12" r="11.5" stroke="white" stroke-opacity="0.85"/>
<path fill-rule="evenodd" clip-rule="evenodd" d="M13.1028 16.0625C13.1028 16.4998 13.1082 16.8773 13.0976 17.2543C13.0957 17.3202 13.0409 17.4087 12.9853 17.4449C12.7021 17.6292 12.4142 17.8068 12.1192 17.9698C12.0515 18.0072 11.9331 18.0111 11.8667 17.9744C11.5717 17.8116 11.2854 17.6314 11.0006 17.4496C10.9521 17.4187 10.8959 17.3504 10.8948 17.2982C10.8859 16.907 10.8899 16.5155 10.8899 16.0704C11.1418 16.2232 11.3795 16.3362 11.5816 16.4975C11.8655 16.7241 12.1114 16.7256 12.396 16.4984C12.5997 16.3356 12.8397 16.2219 13.1028 16.0625ZM7.02629 11.3708C7.37427 11.5846 7.7009 11.7772 8.01639 11.9879C8.06306 12.019 8.0724 12.1352 8.07289 12.2123C8.07718 12.8556 8.07956 13.4989 8.07241 14.1421C8.0707 14.2965 8.11547 14.3876 8.24884 14.4654C8.78172 14.7765 9.30477 15.1058 9.83773 15.4168C9.97846 15.4989 10.0305 15.5975 10.0262 15.7604C10.0173 16.0991 10.0235 16.4382 10.0235 16.8485C9.74594 16.6808 9.52811 16.5491 9.31015 16.4176C8.59914 15.9888 7.88857 15.5592 7.17659 15.1322C7.07041 15.0685 6.99914 15.0036 7.00001 14.8542C7.00646 13.7568 7.00322 12.6594 7.00414 11.562C7.00419 11.5122 7.01532 11.4624 7.02629 11.3708ZM16.9803 11.3542C16.9871 11.445 16.995 11.5015 16.995 11.558C16.9957 12.6396 16.9985 13.7213 16.9902 14.8029C16.9895 14.898 16.9403 15.0373 16.8703 15.0806C15.9391 15.6564 15.0002 16.2187 14.0629 16.7838C14.0396 16.7978 14.0121 16.8046 13.9617 16.8246C13.9617 16.4063 13.9541 16.008 13.9694 15.6105C13.9719 15.5468 14.0674 15.4707 14.136 15.4284C14.6551 15.1082 15.1747 14.7884 15.7023 14.4838C15.8528 14.3969 15.8963 14.2953 15.8938 14.1245C15.8846 13.4892 15.8945 12.8538 15.8868 12.2185C15.885 12.0703 15.929 11.9849 16.0549 11.9134C16.3593 11.7407 16.6552 11.5521 16.9803 11.3542ZM10.215 9.57456C10.7414 9.89771 11.2767 10.2053 11.7989 10.5355C11.9491 10.6305 12.0542 10.614 12.194 10.527C12.706 10.2081 13.2277 9.90576 13.7397 9.58685C13.8805 9.49919 13.9875 9.48577 14.1321 9.5865C14.3734 9.75461 14.6393 9.88462 14.8809 10.0523C14.9561 10.1045 15.0254 10.2242 15.0304 10.3169C15.0483 10.649 15.0314 10.983 15.0403 11.3158C15.0441 11.4579 14.9879 11.5345 14.8747 11.6015C14.3432 11.9158 13.8179 12.2417 13.2847 12.5527C13.1452 12.6341 13.0936 12.7302 13.0997 12.8947C13.1076 13.1115 13.1065 13.3285 13.1049 13.5456L13.1032 13.8712C13.1051 14.1968 13.1144 14.5229 13.0988 14.8477C13.0947 14.933 13.0332 15.0456 12.9645 15.092C12.6903 15.2774 12.4071 15.4505 12.117 15.6075C12.0456 15.6461 11.9198 15.6378 11.8457 15.5978C11.5746 15.4515 11.3187 15.2754 11.0491 15.1258C10.9199 15.0542 10.8828 14.9613 10.8841 14.8175C10.8894 14.1891 10.8794 13.5606 10.8898 12.9323C10.893 12.7404 10.8293 12.6292 10.6699 12.5364C10.1429 12.2297 9.62557 11.9048 9.09887 11.5973C8.97358 11.5242 8.92445 11.4422 8.92928 11.2935C8.93958 10.9759 8.93769 10.6575 8.92997 10.3397C8.92664 10.2032 8.96457 10.1179 9.08583 10.05C9.35484 9.89934 9.6192 9.7384 9.87698 9.56783C10.0008 9.48587 10.0961 9.50162 10.215 9.57456ZM15.0358 12.5355C15.0358 12.9711 15.0386 13.3557 15.0325 13.7402C15.0318 13.7918 14.9998 13.8649 14.96 13.8903C14.6457 14.0905 14.3261 14.2815 13.9668 14.5005C13.9668 14.0522 13.9642 13.6489 13.9707 13.2459C13.9714 13.2056 14.0198 13.1528 14.059 13.1285C14.3694 12.9359 14.6829 12.7487 15.0358 12.5355ZM8.93407 12.5291C9.29281 12.7476 9.61729 12.9432 9.93866 13.1441C9.97002 13.1637 10.0002 13.2161 10.0006 13.2536C10.0024 13.4126 10.0032 13.5717 10.0035 13.7338L10.0034 14.4945C9.64335 14.2741 9.31934 14.0778 8.99837 13.8762C8.96727 13.8567 8.9372 13.8049 8.9368 13.7677C8.93242 13.3701 8.93407 12.9724 8.93407 12.5291ZM15.9858 8.36539C16.2768 8.53737 16.5703 8.70627 16.8494 8.89762C16.9228 8.94791 16.9842 9.07173 16.9891 9.16526C17.006 9.48992 17.0003 9.81625 16.992 10.1416C16.9901 10.2146 16.9635 10.3201 16.9132 10.3531C16.5892 10.5656 16.2555 10.7621 15.89 10.9852C15.89 10.5734 15.8828 10.2051 15.8933 9.83731C15.8979 9.68004 15.8477 9.59063 15.7141 9.51541C15.4146 9.34666 15.1246 9.15953 14.7921 8.95634C15.1561 8.73552 15.4902 8.52896 15.8297 8.3327C15.8656 8.31201 15.9408 8.33878 15.9858 8.36539ZM8.20157 8.36271C8.51973 8.54312 8.82987 8.73891 9.18742 8.95673C8.9353 9.10967 8.7233 9.26614 8.49021 9.37289C8.16152 9.5235 8.01702 9.74338 8.06877 10.1266C8.10372 10.3851 8.07545 10.6528 8.07545 10.9754C7.71487 10.7566 7.39976 10.5716 7.09278 10.3731C7.04428 10.3418 7.00906 10.2498 7.00757 10.1848C6.99937 9.82949 6.99573 9.47343 7.00959 9.11848C7.01266 9.03885 7.0738 8.93324 7.13918 8.88955C7.41429 8.70563 7.69841 8.53563 7.98579 8.37303C8.04399 8.34009 8.1464 8.33146 8.20157 8.36271ZM12.0486 8.33865C12.3797 8.53533 12.7089 8.73543 13.0747 8.95648C12.7116 9.17617 12.3899 9.37706 12.0606 9.56335C12.012 9.59087 11.9166 9.56934 11.861 9.5369C11.5516 9.35644 11.2478 9.16559 10.9056 8.95588C11.267 8.73788 11.6068 8.53146 11.9491 8.32946C11.9734 8.31515 12.0217 8.32266 12.0486 8.33865ZM11.8485 6.03631C11.9152 5.99654 12.0382 5.98561 12.1011 6.02292C13.0491 6.58631 13.9914 7.15992 14.9348 7.73178C14.9467 7.73897 14.9544 7.75374 14.9928 7.79839C14.6529 8.00573 14.3307 8.20866 14.0005 8.39632C13.9543 8.4226 13.8593 8.39163 13.8029 8.35809C13.2593 8.03508 12.7167 7.7101 12.1798 7.37543C12.0449 7.29137 11.9435 7.28538 11.8044 7.37286C11.2809 7.70188 10.7463 8.01156 10.2213 8.3378C10.0924 8.41785 9.99488 8.425 9.86423 8.33798C9.58312 8.15087 9.28972 7.98378 8.97958 7.79525C9.03497 7.75047 9.06931 7.71568 9.10948 7.69127C10.0213 7.13741 10.9325 6.58247 11.8485 6.03631Z" fill="white" fill-opacity="0.85"/>
</svg>
