<svg width="12" height="12" viewBox="0 0 12 12" fill="none" xmlns="http://www.w3.org/2000/svg">
<path fill-rule="evenodd" clip-rule="evenodd" d="M7.66094 3.98752H4.33594L3.42344 2.15002H8.57344L7.66094 3.98752ZM7.64844 9.85003H4.34844C3.7401 9.85003 3.22135 9.63544 2.79219 9.20628C2.36302 8.77711 2.14844 8.25694 2.14844 7.64578C2.14844 7.39053 2.19219 7.14198 2.27969 6.90015C2.36719 6.6584 2.49427 6.43752 2.66094 6.23752L4.24844 4.33752H7.74844L9.33594 6.23752C9.50261 6.43752 9.62969 6.6584 9.71719 6.90015C9.80469 7.14198 9.84844 7.39053 9.84844 7.64578C9.84844 8.25694 9.63456 8.77711 9.20681 9.20628C8.77898 9.63544 8.25952 9.85003 7.64844 9.85003ZM4.79688 5.5V9.02295H6.37891C7.13086 9.02295 7.59717 8.63477 7.59717 8.01709V8.01221C7.59717 7.56055 7.25781 7.21143 6.7915 7.1748V7.13086C7.15283 7.07715 7.42871 6.75244 7.42871 6.38135V6.37646C7.42871 5.83447 7.021 5.5 6.3374 5.5H4.79688ZM5.53418 6.04688H6.14941C6.50098 6.04688 6.70361 6.21777 6.70361 6.50342V6.5083C6.70361 6.79883 6.48633 6.96484 6.08838 6.96484H5.53418V6.04688ZM5.53418 7.45068H6.17383C6.6084 7.45068 6.84521 7.62646 6.84521 7.95361V7.9585C6.84521 8.29297 6.61572 8.47363 6.19092 8.47363H5.53418V7.45068Z" fill="#38AF75"/>
</svg>
