<svg width="26" height="26" viewBox="0 0 26 26" fill="none" xmlns="http://www.w3.org/2000/svg">
<path fill-rule="evenodd" clip-rule="evenodd" d="M11.7969 7C11.5207 7 11.2969 7.22386 11.2969 7.5C11.2969 7.77614 11.5207 8 11.7969 8H15.6713H18.5456C18.8218 8 19.0456 8.22386 19.0456 8.5V15.2487C19.0456 15.5249 19.2695 15.7487 19.5456 15.7487C19.8218 15.7487 20.0456 15.5249 20.0456 15.2487V8.5C20.0456 7.67157 19.3741 7 18.5456 7H15.6713H11.7969ZM8 10.9722L15.5937 10.9722L15.5937 18.5659L8 18.5659L8 10.9722ZM7 10.9722C7 10.4199 7.44772 9.97222 8 9.97222H15.5937C16.146 9.97222 16.5937 10.4199 16.5937 10.9722V18.5659C16.5937 19.1182 16.146 19.5659 15.5937 19.5659H8C7.44771 19.5659 7 19.1182 7 18.5659V10.9722Z" fill="white" fill-opacity="0.65"/>
</svg>
