<svg width="20" height="20" viewBox="0 0 20 20" fill="none" xmlns="http://www.w3.org/2000/svg">
<g clip-path="url(#clip0_6050_12702)">
<path d="M14.2373 9.59024L14.3636 9.72351C15.6242 11.1192 15.5822 13.2737 14.2373 14.6187L14.1054 14.7451C12.7548 15.9654 10.6928 15.9651 9.34207 14.7451L9.20879 14.6187L8.18818 13.5981L8.89529 12.891L9.9159 13.9116C10.9139 14.9092 12.5322 14.9093 13.5302 13.9116C14.528 12.9137 14.5278 11.2953 13.5302 10.2973L12.5095 9.27673L13.2167 8.56963L14.2373 9.59024ZM4.94198 5.06517C6.33772 3.80394 8.49267 3.84565 9.83787 5.19084L10.8599 6.21283L10.1528 6.91994L9.13076 5.89795C8.13278 4.89997 6.51452 4.90002 5.51651 5.89795C4.51873 6.89598 4.51858 8.51427 5.51651 9.51221L6.5385 10.5342L5.83139 11.2413L4.8094 10.2193C3.42094 8.83086 3.4211 6.57939 4.8094 5.19084L4.94198 5.06517Z" fill="white" fill-opacity="0.85"/>
<rect x="6.06665" y="12.7334" width="8.88889" height="0.888889" rx="0.444444" transform="rotate(-45 6.06665 12.7334)" fill="white" fill-opacity="0.85"/>
</g>
<defs>
<clipPath id="clip0_6050_12702">
<rect width="20" height="20" fill="white"/>
</clipPath>
</defs>
</svg>
