<svg width="16" height="17" viewBox="0 0 16 17" fill="none" xmlns="http://www.w3.org/2000/svg">
<path fill-rule="evenodd" clip-rule="evenodd" d="M14.388 11.3617L11.25 14.4998L8.11189 11.3617C7.85154 11.1014 7.85154 10.6793 8.11189 10.4189C8.37224 10.1586 8.79435 10.1586 9.0547 10.4189L10.5834 11.9476L10.5834 3.2552C10.5834 2.83792 10.8819 2.49965 11.2501 2.49965C11.6183 2.49965 11.9167 2.83792 11.9167 3.2552L11.9167 11.9474L13.4452 10.4189C13.7056 10.1586 14.1277 10.1586 14.388 10.4189C14.6484 10.6793 14.6484 11.1014 14.388 11.3617Z" fill="#35CDFF"/>
<rect x="1.75" y="3" width="4.33334" height="4.33328" rx="0.5" stroke="#35CDFF"/>
<rect x="1.75" y="9.66675" width="4.33334" height="4.33328" rx="0.5" stroke="#35CDFF"/>
</svg>
