<svg width="18" height="18" viewBox="0 0 18 18" fill="none" xmlns="http://www.w3.org/2000/svg">
<path d="M8.82494 14.25C8.66056 14.25 8.52331 14.1949 8.41319 14.0848C8.30306 13.9747 8.248 13.8374 8.248 13.6731V9.49031L4.20081 4.37306C4.09994 4.23844 4.08625 4.10094 4.15975 3.96056C4.23338 3.82019 4.35094 3.75 4.51244 3.75H13.4836C13.6451 3.75 13.7626 3.82019 13.8363 3.96056C13.9098 4.10094 13.8961 4.23844 13.7952 4.37306L9.748 9.49031V13.6731C9.748 13.8374 9.69294 13.9747 9.58281 14.0848C9.47269 14.1949 9.33544 14.25 9.17106 14.25H8.82494ZM8.998 9.225L12.7105 4.5H5.2855L8.998 9.225Z" fill="white" fill-opacity="0.85"/>
</svg>
