<svg width="8" height="10" viewBox="0 0 8 10" fill="none" xmlns="http://www.w3.org/2000/svg">
<path d="M1 6C1 6.43333 1.0875 6.84375 1.2625 7.23125C1.4375 7.61875 1.6875 7.95833 2.0125 8.25C2.00417 8.20833 2 8.17083 2 8.1375V8.025C2 7.75833 2.05 7.50833 2.15 7.275C2.25 7.04167 2.39583 6.82917 2.5875 6.6375L4 5.25L5.4125 6.6375C5.60417 6.82917 5.75 7.04167 5.85 7.275C5.95 7.50833 6 7.75833 6 8.025V8.1375C6 8.17083 5.99583 8.20833 5.9875 8.25C6.3125 7.95833 6.5625 7.61875 6.7375 7.23125C6.9125 6.84375 7 6.43333 7 6C7 5.58333 6.92292 5.18958 6.76875 4.81875C6.61458 4.44792 6.39167 4.11667 6.1 3.825C5.93333 3.93333 5.75833 4.01458 5.575 4.06875C5.39167 4.12292 5.20417 4.15 5.0125 4.15C4.49583 4.15 4.04792 3.97917 3.66875 3.6375C3.28958 3.29583 3.07083 2.875 3.0125 2.375C2.6875 2.65 2.4 2.93542 2.15 3.23125C1.9 3.52708 1.68958 3.82708 1.51875 4.13125C1.34792 4.43542 1.21875 4.74583 1.13125 5.0625C1.04375 5.37917 1 5.69167 1 6ZM4 6.65L3.2875 7.35C3.19583 7.44167 3.125 7.54583 3.075 7.6625C3.025 7.77917 3 7.9 3 8.025C3 8.29167 3.09792 8.52083 3.29375 8.7125C3.48958 8.90417 3.725 9 4 9C4.275 9 4.51042 8.90417 4.70625 8.7125C4.90208 8.52083 5 8.29167 5 8.025C5 7.89167 4.975 7.76875 4.925 7.65625C4.875 7.54375 4.80417 7.44167 4.7125 7.35L4 6.65ZM4 0.5V2.15C4 2.43333 4.09792 2.67083 4.29375 2.8625C4.48958 3.05417 4.72917 3.15 5.0125 3.15C5.1625 3.15 5.30208 3.11875 5.43125 3.05625C5.56042 2.99375 5.675 2.9 5.775 2.775L6 2.5C6.61667 2.85 7.10417 3.3375 7.4625 3.9625C7.82083 4.5875 8 5.26667 8 6C8 7.11667 7.6125 8.0625 6.8375 8.8375C6.0625 9.6125 5.11667 10 4 10C2.88333 10 1.9375 9.6125 1.1625 8.8375C0.3875 8.0625 0 7.11667 0 6C0 4.925 0.360417 3.90417 1.08125 2.9375C1.80208 1.97083 2.775 1.15833 4 0.5Z" fill="white" fill-opacity="0.45"/>
</svg>
