<svg width="21" height="24" viewBox="0 0 21 24" fill="none" xmlns="http://www.w3.org/2000/svg">
<g filter="url(#filter0_d_703_18617)">
<path d="M10.2397 18C10.0541 17.9995 9.60126 17.9523 9.50011 17.9347C7.67476 17.618 6 16.0989 6 13.8981C6 13.0366 6.11702 12.5468 6.24185 12.1429C6.48691 11.3496 6.93681 10.6833 7.46671 10.0659C7.88718 9.57586 8.3449 9.12033 8.73916 8.6063C9.29642 7.88013 9.58586 7.07878 9.41688 6.14399C9.40907 6.10053 9.3939 6.05025 9.44309 6.01572C9.49827 5.97719 9.53666 6.0183 9.57666 6.04509C10.0153 6.33734 10.4054 6.68574 10.7197 7.11472C11.356 7.98326 11.6241 8.9493 11.4296 10.0309C11.3799 10.3067 11.3103 10.5795 11.3126 10.863C11.3181 11.5213 11.9466 12.0111 12.5696 11.8425C13.0715 11.7067 13.3634 11.2565 13.3276 10.6732C13.3241 10.6189 13.3083 10.5581 13.3729 10.5311C13.4398 10.5031 13.4671 10.5621 13.4988 10.6044C13.7784 10.9744 13.9922 11.382 14.1446 11.8218C14.5216 12.91 14.6122 14.0116 14.1979 15.1064C13.6287 16.6101 12.5735 17.5616 11.0247 17.9213C10.8785 17.9551 10.4369 18.0005 10.2397 18ZM9.73896 12.5409C9.74816 12.3734 9.75712 12.2097 9.76655 12.0459C9.76931 11.9989 9.77805 11.9512 9.72724 11.9221C9.67344 11.8913 9.64103 11.9301 9.60861 11.9618C9.26608 12.2968 8.94193 12.6487 8.67548 13.0517C8.23041 13.7245 8.02489 14.4659 8.15754 15.2701C8.29961 16.1323 8.80445 16.7215 9.61781 16.9802C10.4445 17.2433 11.1871 17.03 11.7783 16.3844C12.363 15.7458 12.499 14.9894 12.2278 14.1594C12.1793 14.0106 12.1418 14.0043 12.0193 14.1093C11.2843 14.7375 10.2013 14.445 9.86517 13.5288C9.74724 13.2074 9.74448 12.8724 9.73919 12.5404L9.73896 12.5409Z" fill="url(#paint0_linear_703_18617)" style="mix-blend-mode:screen" shape-rendering="crispEdges"/>
</g>
<path d="M9.73902 12.5397C9.74431 12.8715 9.74707 13.2067 9.865 13.5281C10.2013 14.4443 11.2844 14.7368 12.0191 14.1086C12.1416 14.0038 12.1791 14.0099 12.2276 14.1586C12.4989 14.9889 12.3628 15.7454 11.7782 16.3837C11.1869 17.0293 10.4446 17.2423 9.61764 16.9795C8.80428 16.7206 8.29921 16.1316 8.15737 15.2694C8.02495 14.4652 8.23047 13.7238 8.67531 13.051C8.94176 12.648 9.26614 12.2964 9.60844 11.9611C9.64086 11.9294 9.67327 11.8906 9.72707 11.9214C9.77787 11.9505 9.76914 11.9982 9.76638 12.0452C9.75672 12.209 9.74799 12.3725 9.73879 12.5402L9.73902 12.5397Z" fill="#FFBD73"/>
<defs>
<filter id="filter0_d_703_18617" x="0" y="0" width="20.4702" height="24" filterUnits="userSpaceOnUse" color-interpolation-filters="sRGB">
<feFlood flood-opacity="0" result="BackgroundImageFix"/>
<feColorMatrix in="SourceAlpha" type="matrix" values="0 0 0 0 0 0 0 0 0 0 0 0 0 0 0 0 0 0 127 0" result="hardAlpha"/>
<feOffset/>
<feGaussianBlur stdDeviation="3"/>
<feComposite in2="hardAlpha" operator="out"/>
<feColorMatrix type="matrix" values="0 0 0 0 1 0 0 0 0 0.32549 0 0 0 0 0.239216 0 0 0 0.45 0"/>
<feBlend mode="normal" in2="BackgroundImageFix" result="effect1_dropShadow_703_18617"/>
<feBlend mode="normal" in="SourceGraphic" in2="effect1_dropShadow_703_18617" result="shape"/>
</filter>
<linearGradient id="paint0_linear_703_18617" x1="14.4706" y1="6.35294" x2="6" y2="18.353" gradientUnits="userSpaceOnUse">
<stop stop-color="#FF533D" stop-opacity="0.5"/>
<stop offset="0.49" stop-color="#FF533D"/>
<stop offset="1" stop-color="#FF1A1A"/>
</linearGradient>
</defs>
</svg>
