<svg width="12" height="10" viewBox="0 0 12 10" fill="none" xmlns="http://www.w3.org/2000/svg">
<path d="M9.6033 3.44766C9.05042 3.31265 8.49733 3.17784 7.94424 3.04384C7.89546 3.032 7.86129 3.01054 7.8333 2.9666C7.23966 2.0406 6.64417 1.116 6.04971 0.190398C6.03777 0.171742 6.00813 0.155091 6.02769 0.125H5.98652C6.00648 0.163918 5.96882 0.183176 5.95358 0.207048C5.36571 1.12322 4.77619 2.03859 4.18811 2.95477C4.15971 2.9991 4.12986 3.0312 4.07449 3.04464C2.97943 3.31064 1.88478 3.57826 0.790138 3.84526C0.777376 3.84847 0.763379 3.84667 0.75 3.84727V3.86733C0.974158 4.11327 1.17382 4.37868 1.38398 4.63566C1.8677 5.22745 2.34792 5.82205 2.83143 6.41384C2.87219 6.46379 2.88948 6.51254 2.88927 6.57613C2.88763 7.64336 2.88804 8.71059 2.88804 9.77803C2.88804 9.89117 2.88824 9.89157 2.99363 9.84864C3.96889 9.45144 4.94457 9.05464 5.919 8.65523C5.98528 8.62814 6.03818 8.63175 6.10282 8.65824C7.07746 9.05724 8.05354 9.45304 9.02819 9.85185C9.10455 9.88314 9.12822 9.88214 9.12802 9.78966C9.12493 8.72905 9.12699 7.66844 9.12452 6.60783C9.12452 6.52337 9.14572 6.45757 9.20006 6.39097C9.86492 5.57751 10.5271 4.76204 11.1893 3.94657C11.2119 3.91869 11.2434 3.89501 11.25 3.85088C10.7008 3.71627 10.1521 3.58146 9.6033 3.44746V3.44766ZM7.83453 7.19521C7.83556 7.26201 7.81518 7.27766 7.7487 7.27766C6.58921 7.27565 5.42973 7.27565 4.27024 7.27766C4.19861 7.27766 4.17761 7.2596 4.18008 7.18939C4.19141 6.87323 4.15435 6.55507 4.19902 6.24092C4.2511 5.8732 4.46538 5.61402 4.81304 5.46356C4.96762 5.39676 5.12673 5.33979 5.29326 5.27439C5.03411 4.9809 4.99747 4.64208 5.07569 4.29141C5.17799 3.83222 5.61951 3.5285 6.09211 3.56983C6.57727 3.61236 6.94552 3.99773 6.96898 4.4836C6.98277 4.77207 6.93214 5.04048 6.72012 5.27379C6.87903 5.33538 7.026 5.38854 7.16988 5.44872C7.59597 5.62686 7.81704 5.94602 7.83144 6.39538C7.84009 6.66179 7.83083 6.9286 7.83474 7.19521H7.83453Z" fill="#FFB522"/>
</svg>
