<svg width="13" height="12" viewBox="0 0 13 12" fill="none" xmlns="http://www.w3.org/2000/svg">
<g clip-path="url(#clip0_1647_79140)">
<path d="M9.064 2.5C9.04856 3.01042 8.81978 3.39576 8.37814 3.65011C7.90749 3.92099 7.39692 4.08551 6.86764 4.1953C6.38685 4.29511 5.90045 4.34517 5.40984 4.35655C5.35011 4.35795 5.32797 4.36996 5.32813 4.43764C5.33093 5.32405 5.33078 6.2103 5.32844 7.0967C5.32844 7.15767 5.34544 7.17389 5.40407 7.1753C5.84244 7.18528 6.278 7.22613 6.70951 7.30598C7.28214 7.41202 7.83373 7.57936 8.34601 7.86318C8.78859 8.10833 9.03125 8.48042 9.06197 8.98693C9.06431 9.0253 9.07616 9.03372 9.11172 9.03309C9.22322 9.03107 9.33503 9.02701 9.44607 9.03419C9.51952 9.03887 9.53231 9.01345 9.53215 8.94561C9.53028 6.79712 9.53059 4.64848 9.53059 2.5H9.06384H9.064Z" fill="#FFB522"/>
<path d="M4.86587 7.10715C4.86431 6.2131 4.86431 5.31906 4.86587 4.42501C4.86587 4.3776 4.85527 4.36497 4.80661 4.36513C4.26751 4.36716 3.72824 4.36435 3.18913 4.36747C2.87958 4.36934 2.61571 4.57612 2.52745 4.87336C2.52059 4.89628 2.5262 4.92607 2.5 4.94182V6.59049C2.52604 6.60328 2.51949 6.6312 2.52558 6.65147C2.61649 6.959 2.87848 7.1636 3.19708 7.16516C3.7337 7.16765 4.27031 7.16516 4.80677 7.16719C4.85558 7.16734 4.86603 7.15455 4.86603 7.10715H4.86587Z" fill="#FFB522"/>
<path d="M5.0152 7.68313C5.00646 7.639 4.98713 7.63167 4.94783 7.63182C4.51773 7.63291 4.08762 7.63338 3.65752 7.63135C3.60403 7.63104 3.59467 7.64243 3.60559 7.6956C3.72364 8.27308 3.84013 8.8507 3.95257 9.42927C3.96458 9.49102 3.98875 9.50038 4.04287 9.50007C4.37971 9.49804 4.71656 9.49898 5.05325 9.49898C5.15914 9.49898 5.26502 9.49898 5.37247 9.49898C5.37169 9.48291 5.37247 9.47247 5.37044 9.46264C5.25177 8.86957 5.13231 8.27666 5.0152 7.68313Z" fill="#FFB522"/>
<path d="M10.4629 5.43535C10.4629 5.40915 10.4633 5.38747 10.4323 5.3725C10.289 5.30326 10.1472 5.23075 10 5.15698V6.37524C10.1464 6.30226 10.2862 6.23115 10.4273 6.163C10.4594 6.1474 10.4632 6.12573 10.4632 6.09516C10.4622 5.87528 10.4625 5.65539 10.4629 5.43535Z" fill="#FFB522"/>
</g>
<defs>
<clipPath id="clip0_1647_79140">
<rect width="7.96609" height="7" fill="white" transform="translate(2.5 2.5)"/>
</clipPath>
</defs>
</svg>
