<svg width="12" height="12" viewBox="0 0 12 12" fill="none" xmlns="http://www.w3.org/2000/svg">
<path fill-rule="evenodd" clip-rule="evenodd" d="M7.66094 3.98752H4.33594L3.42344 2.15002H8.57344L7.66094 3.98752ZM7.64844 9.85003H4.34844C3.7401 9.85003 3.22135 9.63544 2.79219 9.20628C2.36302 8.77711 2.14844 8.25694 2.14844 7.64578C2.14844 7.39053 2.19219 7.14198 2.27969 6.90015C2.36719 6.6584 2.49427 6.43752 2.66094 6.23752L4.24844 4.33752H7.74844L9.33594 6.23752C9.50261 6.43752 9.62969 6.6584 9.71719 6.90015C9.80469 7.14198 9.84844 7.39053 9.84844 7.64578C9.84844 8.25694 9.63456 8.77711 9.20681 9.20628C8.77898 9.63544 8.25952 9.85003 7.64844 9.85003ZM4.65088 7.87579C4.69238 8.50079 5.22461 8.90363 6.06689 8.90363C6.9458 8.90363 7.48779 8.46173 7.48779 7.76349V7.76105C7.48779 7.21173 7.16309 6.91388 6.41846 6.76007L6.04492 6.68439C5.62988 6.59894 5.45898 6.46222 5.45898 6.23273V6.23029C5.45898 5.96661 5.70068 5.8006 6.06445 5.79816C6.43555 5.79816 6.67969 5.97394 6.72119 6.2254L6.72607 6.2547H7.41943L7.41699 6.22296C7.37061 5.63458 6.88721 5.20001 6.06445 5.20001C5.2832 5.20001 4.72168 5.63214 4.72168 6.28644V6.28888C4.72168 6.82355 5.03662 7.16534 5.76904 7.31427L6.14014 7.38995C6.57715 7.48029 6.75049 7.60968 6.75049 7.84161V7.84406C6.75049 8.11505 6.47949 8.30304 6.08643 8.30304C5.67383 8.30304 5.38818 8.12482 5.36133 7.86115L5.35889 7.83673H4.64844L4.65088 7.87579Z" fill="#E75A5B"/>
</svg>
