<svg width="8" height="8" viewBox="0 0 8 8" fill="none" xmlns="http://www.w3.org/2000/svg">
<path fill-rule="evenodd" clip-rule="evenodd" d="M5.66094 1.9874H2.33594L1.42344 0.149902H6.57344L5.66094 1.9874ZM5.64844 7.8499H2.34844C1.7401 7.8499 1.22135 7.63532 0.792188 7.20615C0.363021 6.77699 0.148438 6.25682 0.148438 5.64565C0.148438 5.3904 0.192188 5.14186 0.279688 4.90003C0.367188 4.65828 0.494271 4.4374 0.660938 4.2374L2.24844 2.3374H5.74844L7.33594 4.2374C7.50261 4.4374 7.62969 4.65828 7.71719 4.90003C7.80469 5.14186 7.84844 5.3904 7.84844 5.64565C7.84844 6.25682 7.63456 6.77699 7.20681 7.20615C6.77898 7.63532 6.25952 7.8499 5.64844 7.8499ZM3.29597 6.47215C3.46371 6.49969 3.64113 6.51652 3.82823 6.52264V7H4.14274V6.50428C4.45887 6.47368 4.70081 6.38953 4.86855 6.25184C5.03952 6.11414 5.125 5.93666 5.125 5.7194C5.125 5.55722 5.08468 5.42717 5.00403 5.32925C4.92339 5.22827 4.80887 5.14412 4.66048 5.07681C4.51532 5.00949 4.34274 4.94523 4.14274 4.88403V4.03947C4.26532 4.04865 4.38952 4.06854 4.51532 4.09914C4.64435 4.12668 4.76371 4.16187 4.87339 4.20471L5.03306 3.80998C4.90403 3.75796 4.76694 3.71665 4.62177 3.68605C4.47661 3.65239 4.31694 3.63403 4.14274 3.63097V3.25H3.82823V3.63556C3.6379 3.6478 3.47016 3.68605 3.325 3.75031C3.18306 3.81457 3.07177 3.90178 2.99113 4.01193C2.91371 4.11903 2.875 4.24755 2.875 4.39749C2.875 4.50765 2.89274 4.60557 2.92823 4.69125C2.96694 4.77693 3.02339 4.85343 3.09758 4.92075C3.175 4.98501 3.27339 5.04468 3.39274 5.09976C3.51532 5.15484 3.66048 5.20685 3.82823 5.25581V6.11414C3.66371 6.11108 3.49274 6.08966 3.31532 6.04988C3.14113 6.00704 2.99597 5.95961 2.87984 5.90759V6.35741C2.99274 6.40637 3.13145 6.44461 3.29597 6.47215ZM4.50565 5.98103C4.43145 6.03917 4.31048 6.07742 4.14274 6.09578V5.36138C4.2621 5.39504 4.35565 5.4287 4.42339 5.46236C4.49436 5.49602 4.54435 5.5358 4.57339 5.5817C4.60565 5.6276 4.62177 5.68268 4.62177 5.74694C4.62177 5.8418 4.58306 5.91983 4.50565 5.98103ZM3.57661 4.10373C3.64435 4.07313 3.72823 4.05477 3.82823 4.04865V4.77846C3.71532 4.74786 3.62661 4.71573 3.5621 4.68207C3.49758 4.64535 3.45081 4.60251 3.42177 4.55355C3.39274 4.50153 3.37823 4.44186 3.37823 4.37454C3.37823 4.31334 3.39435 4.25979 3.42661 4.21389C3.4621 4.16799 3.5121 4.13127 3.57661 4.10373Z" fill="#7CFFB2"/>
</svg>
