<svg width="24" height="24" viewBox="0 0 24 24" fill="none" xmlns="http://www.w3.org/2000/svg">
<circle cx="12" cy="12" r="11.5" stroke="white" stroke-opacity="0.85"/>
<path fill-rule="evenodd" clip-rule="evenodd" d="M16.1114 9.30885C16.1615 9.30885 16.2097 9.28674 16.2444 9.24792L17.9483 7.33611C18.0607 7.20971 17.9778 7 17.8153 7H7.85263C7.80155 7 7.75284 7.02267 7.71808 7.06263L6.0503 8.97444C5.93971 9.1014 6.02344 9.30885 6.18511 9.30885H16.1114ZM7.85253 13.6912C7.80145 13.6912 7.75273 13.7138 7.71824 13.7538L6.05046 15.6656C5.93987 15.7926 6.02334 16 6.18501 16H16.1113C16.1616 16 16.2096 15.9779 16.2443 15.9391L17.9482 14.0273C18.0609 13.9009 17.9777 13.6912 17.8152 13.6912H7.85253ZM7.75568 12.5934C7.79044 12.6325 7.83836 12.6546 7.88892 12.6546H17.8153C17.9767 12.6546 18.0601 12.4469 17.9498 12.3202L16.2823 10.4084C16.2473 10.3682 16.1985 10.3455 16.1475 10.3455H6.18506C6.0226 10.3455 5.9394 10.5555 6.05183 10.6816L7.75568 12.5934Z" fill="white" fill-opacity="0.85"/>
</svg>
