<svg width="10" height="10" viewBox="0 0 10 10" fill="none" xmlns="http://www.w3.org/2000/svg">
<path fill-rule="evenodd" clip-rule="evenodd" d="M7.98805 1.3221C7.98805 0.868037 8.33341 0.5 8.7595 0.5H8.75976H9.5V1.5222C9.5 1.97627 9.15464 2.34431 8.72855 2.34431H8.52066V5.65554C8.52066 7.02187 7.48149 8.12928 6.19935 8.12928H5.7503V9.5C5.10601 9.5 4.58371 8.94341 4.58371 8.25681V8.12928H1.5317C0.961942 8.12928 0.5 7.637 0.5 7.02984V5.34522C0.5 4.73806 0.961942 4.24579 1.5317 4.24579H6.57411C7.01439 4.24579 7.38941 3.90523 7.45931 3.4421L7.62489 2.34431H7.24781C6.82172 2.34431 6.47636 1.97627 6.47636 1.5222V0.5H7.2166C7.64269 0.5 7.98805 0.868037 7.98805 1.3221ZM2.75 6.5H3.5V7.25H2.75V6.5Z" fill="#2A68F8"/>
</svg>
